<svg xmlns="http://www.w3.org/2000/svg" xmlns:xlink="http://www.w3.org/1999/xlink" version="1.1" x="0px" y="0px" viewBox="0 0 60 75" enable-background="new 0 0 60 60" fill="#603DEB" xml:space="preserve"><g><path d="M55,33.2v19.78c0,0.35-0.19,0.68-0.49,0.86c-0.16,0.09-0.34,0.14-0.51,0.14c-0.16,0-0.33-0.04-0.47-0.12l-8.65-4.56v2.01   c0,1.87-1.52,3.39-3.4,3.39H10.97c-1.87,0-3.4-1.52-3.4-3.39V34.88c0-1.87,1.53-3.4,3.4-3.4h30.51c1.88,0,3.4,1.53,3.4,3.4v2   l8.65-4.56c0.31-0.17,0.68-0.16,0.98,0.03C54.81,32.53,55,32.85,55,33.2z"/><path d="M38.64,29.69c6.73,0,12.2-5.47,12.2-12.19c0-6.73-5.47-12.2-12.2-12.2c-6.72,0-12.2,5.47-12.2,12.2   C26.44,24.22,31.92,29.69,38.64,29.69z M38.64,12.34c2.84,0,5.15,2.32,5.15,5.16c0,2.84-2.31,5.15-5.15,5.15   c-2.84,0-5.15-2.31-5.15-5.15C33.49,14.66,35.8,12.34,38.64,12.34z"/><path d="M15.02,29.69c5.53,0,10.03-4.5,10.03-10.03c0-5.53-4.5-10.03-10.03-10.03C9.49,9.63,5,14.13,5,19.66   C5,25.19,9.49,29.69,15.02,29.69z M15.02,15.31c2.4,0,4.35,1.96,4.35,4.35c0,2.4-1.95,4.35-4.35,4.35c-2.39,0-4.35-1.95-4.35-4.35   C10.67,17.27,12.63,15.31,15.02,15.31z"/></g></svg>